<svg width="32" height="33" viewBox="0 0 32 33" fill="none" xmlns="http://www.w3.org/2000/svg">
<path fill-rule="evenodd" clip-rule="evenodd" d="M21.5445 11.1772C21.5445 14.3101 19.0469 16.8222 15.9321 16.8222C12.8173 16.8222 10.3197 14.3101 10.3197 11.1772C10.3197 8.04305 12.8173 5.53336 15.9321 5.53336C19.0469 5.53336 21.5445 8.04305 21.5445 11.1772ZM15.9321 26.8667C11.3572 26.8667 7.45083 26.1414 7.45083 23.2402C7.45083 20.3379 11.3321 19.5862 15.9321 19.5862C20.507 19.5862 24.4133 20.3115 24.4133 23.2138C24.4133 26.115 20.5321 26.8667 15.9321 26.8667ZM23.9428 11.279C23.9428 12.8761 23.4665 14.3639 22.6308 15.6007C22.5448 15.728 22.6212 15.8997 22.7728 15.9261C22.9818 15.9621 23.1979 15.9826 23.4175 15.9886C25.6083 16.0462 27.5746 14.628 28.1178 12.493C28.9225 9.32167 26.5598 6.47455 23.5512 6.47455C23.2241 6.47455 22.9113 6.50937 22.6069 6.57182C22.5651 6.58142 22.5209 6.60063 22.4971 6.63786C22.4684 6.68349 22.4899 6.74473 22.5185 6.78436C23.4223 8.05842 23.9428 9.61226 23.9428 11.279ZM27.571 18.2168C29.043 18.5062 30.0113 19.097 30.4124 19.9556C30.7515 20.6604 30.7515 21.4782 30.4124 22.1819C29.7988 23.5135 27.8205 23.941 27.0517 24.0515C26.8929 24.0755 26.7651 23.9374 26.7819 23.7777C27.1746 20.0876 24.0503 18.3381 23.242 17.9358C23.2074 17.9178 23.2002 17.8902 23.2038 17.8733C23.2062 17.8613 23.2205 17.8421 23.2468 17.8385C24.9958 17.8061 26.8762 18.0463 27.571 18.2168ZM8.58285 15.9884C8.80253 15.9824 9.01742 15.9632 9.22754 15.926C9.37916 15.8996 9.45557 15.7279 9.36961 15.6006C8.5339 14.3637 8.05755 12.8759 8.05755 11.2789C8.05755 9.61214 8.57808 8.0583 9.48184 6.78424C9.51049 6.74461 9.53079 6.68337 9.50333 6.63774C9.47945 6.60172 9.43408 6.5813 9.39349 6.5717C9.08786 6.50925 8.77507 6.47443 8.44795 6.47443C5.43939 6.47443 3.07672 9.32155 3.88259 12.4929C4.4258 14.6279 6.3921 16.0461 8.58285 15.9884ZM8.79596 17.8726C8.79954 17.8906 8.79238 17.9171 8.75895 17.9363C7.9495 18.3385 4.82515 20.0881 5.21793 23.777C5.23464 23.9379 5.10809 24.0748 4.94931 24.052C4.18046 23.9415 2.20221 23.514 1.58856 22.1823C1.24831 21.4775 1.24831 20.6609 1.58856 19.956C1.9897 19.0975 2.95674 18.5067 4.42878 18.2161C5.12481 18.0467 7.00396 17.8066 8.75417 17.839C8.78044 17.8426 8.79357 17.8618 8.79596 17.8726Z" fill="#6C6C6C"/>
</svg>
