<svg width="30" height="22" viewBox="0 0 30 22" fill="none" xmlns="http://www.w3.org/2000/svg">
<path fill-rule="evenodd" clip-rule="evenodd" d="M20.5444 5.97715C20.5444 9.11006 18.0469 11.6221 14.932 11.6221C11.8172 11.6221 9.31966 9.11006 9.31966 5.97715C9.31966 2.84303 11.8172 0.333344 14.932 0.333344C18.0469 0.333344 20.5444 2.84303 20.5444 5.97715ZM14.932 21.6667C10.3571 21.6667 6.4508 20.9414 6.4508 18.0402C6.4508 15.1379 10.3321 14.3862 14.932 14.3862C19.507 14.3862 23.4133 15.1115 23.4133 18.0138C23.4133 20.915 19.532 21.6667 14.932 21.6667ZM22.9428 6.07897C22.9428 7.67605 22.4664 9.16385 21.6307 10.4007C21.5448 10.528 21.6212 10.6997 21.7728 10.7261C21.9817 10.7621 22.1978 10.7825 22.4175 10.7885C24.6082 10.8462 26.5746 9.42803 27.1178 7.29299C27.9224 4.12166 25.5598 1.27454 22.5512 1.27454C22.2241 1.27454 21.9113 1.30936 21.6069 1.3718C21.5651 1.38141 21.5209 1.40062 21.497 1.43785C21.4684 1.48348 21.4899 1.54472 21.5185 1.58435C22.4223 2.8584 22.9428 4.41225 22.9428 6.07897ZM26.571 13.0168C28.043 13.3062 29.0112 13.897 29.4124 14.7555C29.7514 15.4604 29.7514 16.2782 29.4124 16.9818C28.7987 18.3135 26.8205 18.741 26.0516 18.8515C25.8929 18.8755 25.7651 18.7374 25.7818 18.5777C26.1746 14.8876 23.0502 13.1381 22.242 12.7358C22.2074 12.7178 22.2002 12.6901 22.2038 12.6733C22.2062 12.6613 22.2205 12.6421 22.2468 12.6385C23.9958 12.6061 25.8761 12.8463 26.571 13.0168ZM7.58282 10.7884C7.80249 10.7824 8.01739 10.7632 8.22751 10.726C8.37913 10.6996 8.45554 10.5279 8.36958 10.4006C7.53387 9.16373 7.05752 7.67593 7.05752 6.07885C7.05752 4.41213 7.57805 2.85828 8.48181 1.58423C8.51046 1.5446 8.53076 1.48336 8.5033 1.43773C8.47942 1.4017 8.43405 1.38129 8.39346 1.37168C8.08783 1.30924 7.77504 1.27442 7.44792 1.27442C4.43936 1.27442 2.07669 4.12154 2.88256 7.29287C3.42577 9.42791 5.39207 10.8461 7.58282 10.7884ZM7.79593 12.6726C7.79951 12.6906 7.79235 12.717 7.75892 12.7363C6.94947 13.1385 3.82512 14.8881 4.2179 18.577C4.23461 18.7379 4.10806 18.8748 3.94928 18.852C3.18043 18.7415 1.20218 18.314 0.588533 16.9823C0.24828 16.2774 0.24828 15.4609 0.588533 14.756C0.989674 13.8974 1.95671 13.3066 3.42875 13.016C4.12478 12.8467 6.00393 12.6066 7.75414 12.639C7.78041 12.6426 7.79354 12.6618 7.79593 12.6726Z" fill="#0FA3E2"/>
</svg>
