<svg width="24" height="25" viewBox="0 0 24 25" fill="none" xmlns="http://www.w3.org/2000/svg">
<path d="M12 22.2C17.5228 22.2 22 17.7229 22 12.2C22 6.67716 17.5228 2.20001 12 2.20001C6.47715 2.20001 2 6.67716 2 12.2C2 17.7229 6.47715 22.2 12 22.2Z" stroke="#0FA3E2" stroke-width="1.5"/>
<path d="M9 14.2H12" stroke="#0FA3E2" stroke-width="1.5" stroke-linecap="round"/>
<path d="M10 12.2V8.40001C10 8.21421 10 8.12131 10.0123 8.04358C10.0801 7.61568 10.4157 7.28009 10.8436 7.21232C10.9213 7.20001 11.0142 7.20001 11.2 7.20001H13.5C14.8807 7.20001 16 8.3193 16 9.70001C16 11.0807 14.8807 12.2 13.5 12.2H10ZM10 12.2V17.2M10 12.2H9" stroke="#0FA3E2" stroke-width="1.5" stroke-linecap="round"/>
</svg>
