<svg width="23" height="24" viewBox="0 0 23 24" fill="none" xmlns="http://www.w3.org/2000/svg">
<path d="M11.4286 0C5.11521 0 0 5.37097 0 12C0 18.629 5.11521 24 11.4286 24C17.7419 24 22.8571 18.629 22.8571 12C22.8571 5.37097 17.7419 0 11.4286 0ZM14.0599 16.9403L9.99539 13.8387C9.85253 13.7274 9.76958 13.5532 9.76958 13.3694V5.22581C9.76958 4.90645 10.0184 4.64516 10.3226 4.64516H12.5346C12.8387 4.64516 13.0876 4.90645 13.0876 5.22581V11.8887L16.0138 14.1242C16.2627 14.3129 16.3134 14.6758 16.1336 14.9371L14.8341 16.8145C14.6544 17.071 14.3088 17.129 14.0599 16.9403Z" fill="#0FA3E2"/>
</svg>
